<svg xmlns="http://www.w3.org/2000/svg" width="64" height="64" viewBox="0 0 64 64"><defs><linearGradient id="coffeeGrad" x1="0%" x2="100%" y1="0%" y2="100%"><stop offset="0%" stop-color="#d97746"/><stop offset="100%" stop-color="#4a3429"/></linearGradient><linearGradient id="goldGrad" x1="0%" x2="100%" y1="0%" y2="100%"><stop offset="0%" stop-color="#f5d485"/><stop offset="100%" stop-color="#c9933b"/></linearGradient></defs><rect width="64" height="64" fill="#1b1614" rx="16"/><path fill="none" stroke="url(#goldGrad)" stroke-linecap="round" stroke-width="2.5" d="M24 16 Q26 11 24 7" opacity=".85"/><path fill="none" stroke="url(#goldGrad)" stroke-linecap="round" stroke-width="2.5" d="M32 14 Q35 9 32 5" opacity=".95"/><path fill="none" stroke="url(#goldGrad)" stroke-linecap="round" stroke-width="2.5" d="M40 16 Q42 11 40 7" opacity=".85"/><path fill="url(#coffeeGrad)" d="M14 22 H46 V38 C46 47 38 52 30 52 C22 52 14 47 14 38 Z"/><path fill="none" stroke="#d97746" stroke-linecap="round" stroke-width="3.5" d="M46 25 H50 C54 25 56 28 56 32 C56 36 54 39 50 39 H46"/><path stroke="url(#goldGrad)" stroke-linecap="round" stroke-width="3" d="M10 54 H50"/></svg>